<svg width="40" height="40" viewBox="0 0 40 40" fill="none" xmlns="http://www.w3.org/2000/svg">
<path fill-rule="evenodd" clip-rule="evenodd" d="M9.5 5.5H30.5V6.5H29.5V14H37V15H36.5V33.5H38V34.5H2V33.5H3.5V15H3V14H10.5V6.5H9.5V5.5ZM11.5 6.5V33.5H15V26H14V25H26V26H25V33.5H28.5V6.5H11.5ZM29.5 33.5H35.5V15H29.5V18.5H34V19.5H29.5V24H34V25H29.5V29H34V30H29.5V33.5ZM24 33.5V26H16V33.5H24ZM10.5 33.5V30H6V29H10.5V25H6V24H10.5V19.5H6V18.5H10.5V15H4.5V33.5H10.5ZM18 10H22V13H25V17H22V20H18V17H15V13H18V10ZM19 11V14H16V16H19V19H21V16H24V14H21V11H19Z" fill="currentColor"/>
</svg>
