<svg xmlns="http://www.w3.org/2000/svg" width="21" height="17" viewBox="0 0 21 17">
  <path id="Tracciato_1" data-name="Tracciato 1" d="M2.245,1.389A1,1,0,0,1,3.239.5H9.485A1,1,0,0,1,10.2.8l.8.818L11.8.8a1,1,0,0,1,.715-.3h6.246a1,1,0,0,1,.994.889H20.5a1,1,0,0,1,1,1V16.5a1,1,0,0,1-1,1H1.5a1,1,0,0,1-1-1V2.389a1,1,0,0,1,1-1Zm-.006,1H1.5V16.5h8.746l-.761-.778H3.239a1,1,0,0,1-1-1ZM11.754,16.5H20.5V2.389h-.739V14.722a1,1,0,0,1-1,1H12.515ZM11.5,15.329l.3-.307a1,1,0,0,1,.715-.3h6.246V1.5H12.515L11.5,2.537Zm-1-12.792L9.485,1.5H3.239V14.722H9.485a1,1,0,0,1,.715.3l.3.307Z" transform="translate(-0.5 -0.5)" fill-rule="evenodd"/>
</svg>
