<?xml version="1.0" encoding="UTF-8" standalone="no"?>
<svg
   width="1440"
   height="284"
   viewBox="0 0 1440 284"
   fill="none"
   version="1.1"
   id="svg78"
   sodipodi:docname="default-bg-2.svg"
   inkscape:version="1.3.2 (091e20e, 2023-11-25)"
   xmlns:inkscape="http://www.inkscape.org/namespaces/inkscape"
   xmlns:sodipodi="http://sodipodi.sourceforge.net/DTD/sodipodi-0.dtd"
   xmlns="http://www.w3.org/2000/svg"
   xmlns:svg="http://www.w3.org/2000/svg">
  <defs
     id="defs78" />
  <sodipodi:namedview
     id="namedview78"
     pagecolor="#ffffff"
     bordercolor="#000000"
     borderopacity="0.25"
     inkscape:showpageshadow="2"
     inkscape:pageopacity="0.0"
     inkscape:pagecheckerboard="0"
     inkscape:deskcolor="#d1d1d1"
     inkscape:zoom="0.44930556"
     inkscape:cx="718.88717"
     inkscape:cy="141.32921"
     inkscape:window-width="1728"
     inkscape:window-height="954"
     inkscape:window-x="0"
     inkscape:window-y="38"
     inkscape:window-maximized="1"
     inkscape:current-layer="svg78" />
  <g
     opacity="0.15"
     id="g64">
    <ellipse
       cx="6.99078"
       cy="7.123"
       rx="6.99078"
       ry="7.123"
       transform="matrix(0.706692 0.706693 -0.706692 0.706693 39.959 -7.7475)"
       fill="currentColor"
       id="ellipse1" />
    <ellipse
       cx="1.64875"
       cy="40.4415"
       rx="6.98668"
       ry="7.11882"
       transform="rotate(45 1.64875 40.4415)"
       fill="currentColor"
       id="ellipse2" />
    <ellipse
       cx="20.7562"
       cy="21.336"
       rx="6.98668"
       ry="7.11882"
       transform="rotate(45 20.7562 21.336)"
       fill="currentColor"
       id="ellipse3" />
    <ellipse
       cx="6.99076"
       cy="7.12298"
       rx="6.99076"
       ry="7.12298"
       transform="matrix(0.706691 0.706693 -0.706691 0.706693 191.402 -9.16547)"
       fill="currentColor"
       id="ellipse4" />
    <ellipse
       cx="6.99078"
       cy="7.123"
       rx="6.99078"
       ry="7.123"
       transform="matrix(0.706692 0.706693 -0.706692 0.706693 153.186 29.0493)"
       fill="currentColor"
       id="ellipse5" />
    <ellipse
       cx="114.877"
       cy="77.2383"
       rx="6.98668"
       ry="7.11882"
       transform="rotate(45 114.877 77.2383)"
       fill="currentColor"
       id="ellipse6" />
    <ellipse
       cx="76.6605"
       cy="115.453"
       rx="6.98668"
       ry="7.11882"
       transform="rotate(45 76.6605 115.453)"
       fill="currentColor"
       id="ellipse7" />
    <ellipse
       cx="38.4476"
       cy="153.672"
       rx="6.98668"
       ry="7.11882"
       transform="rotate(45 38.4476 153.672)"
       fill="currentColor"
       id="ellipse8" />
    <ellipse
       cx="6.99079"
       cy="7.123"
       rx="6.99079"
       ry="7.123"
       transform="matrix(0.706693 0.706691 -0.706693 0.706691 0.324219 181.913)"
       fill="currentColor"
       id="ellipse9" />
    <ellipse
       cx="172.2"
       cy="19.9141"
       rx="6.98668"
       ry="7.11882"
       transform="rotate(45 172.2 19.9141)"
       fill="currentColor"
       id="ellipse10" />
    <ellipse
       cx="133.985"
       cy="58.1289"
       rx="6.98668"
       ry="7.11882"
       transform="rotate(45 133.985 58.1289)"
       fill="currentColor"
       id="ellipse11" />
    <ellipse
       cx="6.99078"
       cy="7.123"
       rx="6.99078"
       ry="7.123"
       transform="matrix(0.706692 0.706693 -0.706692 0.706693 95.8613 86.3736)"
       fill="currentColor"
       id="ellipse12" />
    <ellipse
       cx="57.555"
       cy="134.563"
       rx="6.98668"
       ry="7.11882"
       transform="rotate(45 57.555 134.563)"
       fill="currentColor"
       id="ellipse13" />
    <ellipse
       cx="19.3382"
       cy="172.781"
       rx="6.98668"
       ry="7.11882"
       transform="rotate(45 19.3382 172.781)"
       fill="currentColor"
       id="ellipse14" />
    <ellipse
       cx="115.588"
       cy="1.51569"
       rx="6.98668"
       ry="7.11882"
       transform="rotate(45 115.588 1.51569)"
       fill="currentColor"
       id="ellipse15" />
    <ellipse
       cx="77.3714"
       cy="39.7305"
       rx="6.98668"
       ry="7.11882"
       transform="rotate(45 77.3714 39.7305)"
       fill="currentColor"
       id="ellipse16" />
    <ellipse
       cx="6.99078"
       cy="7.123"
       rx="6.99078"
       ry="7.123"
       transform="matrix(0.706692 0.706693 -0.706692 0.706693 39.25 67.9752)"
       fill="currentColor"
       id="ellipse17" />
    <ellipse
       cx="6.99079"
       cy="7.12301"
       rx="6.99079"
       ry="7.12301"
       transform="matrix(0.706693 0.706692 -0.706693 0.706692 1.0332 106.19)"
       fill="currentColor"
       id="ellipse18" />
    <ellipse
       cx="96.4788"
       cy="20.625"
       rx="6.98668"
       ry="7.11882"
       transform="rotate(45 96.4788 20.625)"
       fill="currentColor"
       id="ellipse19" />
    <ellipse
       cx="58.264"
       cy="58.8399"
       rx="6.98668"
       ry="7.11882"
       transform="rotate(45 58.264 58.8399)"
       fill="currentColor"
       id="ellipse20" />
    <ellipse
       cx="20.0472"
       cy="97.0547"
       rx="6.98668"
       ry="7.11882"
       transform="rotate(45 20.0472 97.0547)"
       fill="currentColor"
       id="ellipse21" />
    <ellipse
       cx="6.99076"
       cy="7.12298"
       rx="6.99076"
       ry="7.12298"
       transform="matrix(0.706691 0.706693 -0.706691 0.706693 267.123 -9.87637)"
       fill="currentColor"
       id="ellipse22" />
    <ellipse
       cx="6.99076"
       cy="7.12298"
       rx="6.99076"
       ry="7.12298"
       transform="matrix(0.706691 0.706693 -0.706691 0.706693 228.906 28.3385)"
       fill="currentColor"
       id="ellipse23" />
    <ellipse
       cx="190.6"
       cy="76.5313"
       rx="6.98668"
       ry="7.11882"
       transform="rotate(45 190.6 76.5313)"
       fill="currentColor"
       id="ellipse24" />
    <ellipse
       cx="152.383"
       cy="114.746"
       rx="6.98668"
       ry="7.11882"
       transform="rotate(45 152.383 114.746)"
       fill="currentColor"
       id="ellipse25" />
    <ellipse
       cx="6.99079"
       cy="7.123"
       rx="6.99079"
       ry="7.123"
       transform="matrix(0.706693 0.706691 -0.706693 0.706691 114.262 142.987)"
       fill="currentColor"
       id="ellipse26" />
    <ellipse
       cx="75.9515"
       cy="191.18"
       rx="6.98668"
       ry="7.11882"
       transform="rotate(45 75.9515 191.18)"
       fill="currentColor"
       id="ellipse27" />
    <ellipse
       cx="37.7386"
       cy="229.395"
       rx="6.98668"
       ry="7.11882"
       transform="rotate(45 37.7386 229.395)"
       fill="currentColor"
       id="ellipse28" />
    <ellipse
       cx="6.99076"
       cy="7.12298"
       rx="6.99076"
       ry="7.12298"
       transform="matrix(0.706691 0.706693 -0.706691 0.706693 248.014 9.23297)"
       fill="currentColor"
       id="ellipse29" />
    <ellipse
       cx="6.99076"
       cy="7.12298"
       rx="6.99076"
       ry="7.12298"
       transform="matrix(0.706691 0.706693 -0.706691 0.706693 209.801 47.4478)"
       fill="currentColor"
       id="ellipse30" />
    <ellipse
       cx="6.99078"
       cy="7.123"
       rx="6.99078"
       ry="7.123"
       transform="matrix(0.706692 0.706693 -0.706692 0.706693 171.584 85.6627)"
       fill="currentColor"
       id="ellipse31" />
    <ellipse
       cx="133.276"
       cy="133.855"
       rx="6.98668"
       ry="7.11882"
       transform="rotate(45 133.276 133.855)"
       fill="currentColor"
       id="ellipse32" />
    <ellipse
       cx="95.0589"
       cy="172.066"
       rx="6.98668"
       ry="7.11882"
       transform="rotate(45 95.0589 172.066)"
       fill="currentColor"
       id="ellipse33" />
    <ellipse
       cx="56.8441"
       cy="210.285"
       rx="6.98668"
       ry="7.11882"
       transform="rotate(45 56.8441 210.285)"
       fill="currentColor"
       id="ellipse34" />
    <ellipse
       cx="18.6292"
       cy="248.5"
       rx="6.98668"
       ry="7.11882"
       transform="rotate(45 18.6292 248.5)"
       fill="currentColor"
       id="ellipse35" />
    <ellipse
       cx="6.99079"
       cy="7.123"
       rx="6.99079"
       ry="7.123"
       transform="matrix(0.706693 0.706691 -0.706693 0.706691 -0.384766 257.635)"
       fill="currentColor"
       id="ellipse36" />
    <ellipse
       cx="58.6175"
       cy="20.9805"
       rx="6.98668"
       ry="7.11882"
       transform="rotate(45 58.6175 20.9805)"
       fill="currentColor"
       id="ellipse37" />
    <ellipse
       cx="6.99078"
       cy="7.123"
       rx="6.99078"
       ry="7.123"
       transform="matrix(0.706692 0.706693 -0.706692 0.706693 20.4941 49.2213)"
       fill="currentColor"
       id="ellipse38" />
    <ellipse
       cx="77.7249"
       cy="1.87112"
       rx="6.98668"
       ry="7.11882"
       transform="rotate(45 77.7249 1.87112)"
       fill="currentColor"
       id="ellipse39" />
    <ellipse
       cx="6.99078"
       cy="7.123"
       rx="6.99078"
       ry="7.123"
       transform="matrix(0.706692 0.706693 -0.706692 0.706693 39.6055 30.1158)"
       fill="currentColor"
       id="ellipse40" />
    <ellipse
       cx="6.99078"
       cy="7.123"
       rx="6.99078"
       ry="7.123"
       transform="matrix(0.706692 0.706693 -0.706692 0.706693 1.38867 68.3306)"
       fill="currentColor"
       id="ellipse41" />
    <ellipse
       cx="6.99076"
       cy="7.12298"
       rx="6.99076"
       ry="7.12298"
       transform="matrix(0.706691 0.706693 -0.706691 0.706693 210.154 9.58453)"
       fill="currentColor"
       id="ellipse42" />
    <ellipse
       cx="171.844"
       cy="57.7774"
       rx="6.98668"
       ry="7.11882"
       transform="rotate(45 171.844 57.7774)"
       fill="currentColor"
       id="ellipse43" />
    <ellipse
       cx="133.631"
       cy="95.9922"
       rx="6.98668"
       ry="7.11882"
       transform="rotate(45 133.631 95.9922)"
       fill="currentColor"
       id="ellipse44" />
    <ellipse
       cx="95.4144"
       cy="134.207"
       rx="6.98668"
       ry="7.11882"
       transform="rotate(45 95.4144 134.207)"
       fill="currentColor"
       id="ellipse45" />
    <ellipse
       cx="6.99079"
       cy="7.123"
       rx="6.99079"
       ry="7.123"
       transform="matrix(0.706693 0.706691 -0.706693 0.706691 57.293 162.448)"
       fill="currentColor"
       id="ellipse46" />
    <ellipse
       cx="18.9827"
       cy="210.641"
       rx="6.98668"
       ry="7.11882"
       transform="rotate(45 18.9827 210.641)"
       fill="currentColor"
       id="ellipse47" />
    <ellipse
       cx="6.99076"
       cy="7.12298"
       rx="6.99076"
       ry="7.12298"
       transform="matrix(0.706691 0.706693 -0.706691 0.706693 229.262 -9.52094)"
       fill="currentColor"
       id="ellipse48" />
    <ellipse
       cx="190.953"
       cy="38.668"
       rx="6.98668"
       ry="7.11882"
       transform="rotate(45 190.953 38.668)"
       fill="currentColor"
       id="ellipse49" />
    <ellipse
       cx="6.99079"
       cy="7.123"
       rx="6.99079"
       ry="7.123"
       transform="matrix(0.706693 0.706691 -0.706693 0.706691 152.83 66.9088)"
       fill="currentColor"
       id="ellipse50" />
    <ellipse
       cx="114.524"
       cy="115.098"
       rx="6.98668"
       ry="7.11882"
       transform="rotate(45 114.524 115.098)"
       fill="currentColor"
       id="ellipse51" />
    <ellipse
       cx="6.99078"
       cy="7.123"
       rx="6.99078"
       ry="7.123"
       transform="matrix(0.706692 0.706693 -0.706692 0.706693 76.4004 143.342)"
       fill="currentColor"
       id="ellipse52" />
    <ellipse
       cx="6.99079"
       cy="7.123"
       rx="6.99079"
       ry="7.123"
       transform="matrix(0.706693 0.706691 -0.706693 0.706691 38.1855 181.557)"
       fill="currentColor"
       id="ellipse53" />
    <ellipse
       cx="-0.124686"
       cy="229.746"
       rx="6.98668"
       ry="7.11882"
       transform="rotate(45 -0.124686 229.746)"
       fill="currentColor"
       id="ellipse54" />
    <ellipse
       cx="6.99079"
       cy="7.123"
       rx="6.99079"
       ry="7.123"
       transform="matrix(0.706693 0.706691 -0.706693 0.706691 134.434 10.2955)"
       fill="currentColor"
       id="ellipse55" />
    <ellipse
       cx="96.1234"
       cy="58.4844"
       rx="6.98668"
       ry="7.11882"
       transform="rotate(45 96.1234 58.4844)"
       fill="currentColor"
       id="ellipse56" />
    <ellipse
       cx="6.99079"
       cy="7.123"
       rx="6.99079"
       ry="7.123"
       transform="matrix(0.706693 0.706691 -0.706693 0.706691 58.002 86.7252)"
       fill="currentColor"
       id="ellipse57" />
    <ellipse
       cx="19.6917"
       cy="134.918"
       rx="6.98668"
       ry="7.11882"
       transform="rotate(45 19.6917 134.918)"
       fill="currentColor"
       id="ellipse58" />
    <ellipse
       cx="153.448"
       cy="1.16412"
       rx="6.98668"
       ry="7.11882"
       transform="rotate(45 153.448 1.16412)"
       fill="currentColor"
       id="ellipse59" />
    <ellipse
       cx="115.233"
       cy="39.3789"
       rx="6.98668"
       ry="7.11882"
       transform="rotate(45 115.233 39.3789)"
       fill="currentColor"
       id="ellipse60" />
    <ellipse
       cx="77.0159"
       cy="77.5938"
       rx="6.98668"
       ry="7.11882"
       transform="rotate(45 77.0159 77.5938)"
       fill="currentColor"
       id="ellipse61" />
    <ellipse
       cx="6.99079"
       cy="7.123"
       rx="6.99079"
       ry="7.123"
       transform="matrix(0.706693 0.706691 -0.706693 0.706691 38.8945 105.835)"
       fill="currentColor"
       id="ellipse62" />
    <ellipse
       cx="0.584298"
       cy="154.027"
       rx="6.98668"
       ry="7.11882"
       transform="rotate(45 0.584298 154.027)"
       fill="currentColor"
       id="ellipse63" />
    <ellipse
       cx="2.00422"
       cy="2.58209"
       rx="6.98668"
       ry="7.11882"
       transform="rotate(45 2.00422 2.58209)"
       fill="currentColor"
       id="ellipse64" />
    <path
       d="M1308.5 -34C1308.5 18.3392 1266.49 60.5 1215 60.5C1163.51 60.5 1121.5 18.3392 1121.5 -34C1121.5 -86.3392 1163.51 -128.5 1215 -128.5C1266.49 -128.5 1308.5 -86.3392 1308.5 -34Z"
       stroke="currentColor"
       stroke-width="35"
       fill="none"
       id="path64" />
  </g>
  <circle
     cx="1243"
     cy="8"
     r="95.5"
     stroke="currentColor"
     stroke-width="3"
     id="circle64"     
     fill="none" />
  <g
     opacity="0.15"
     id="g78">
    <line
       x1="1.5"
       y1="-1.5"
       x2="49.0587"
       y2="-1.5"
       transform="matrix(0.641913 0.766778 -0.742101 0.670288 10 169)"
       stroke="currentColor"
       stroke-width="3"
       stroke-linecap="round"
       id="line64" />
    <line
       x1="1.5"
       y1="-1.5"
       x2="49.0587"
       y2="-1.5"
       transform="matrix(0.641913 0.766778 -0.742101 0.670288 67.3867 169)"
       stroke="currentColor"
       stroke-width="3"
       stroke-linecap="round"
       id="line65" />
    <line
       x1="1.5"
       y1="-1.5"
       x2="49.0587"
       y2="-1.5"
       transform="matrix(0.641913 0.766777 -0.742102 0.670287 124.773 169)"
       stroke="currentColor"
       stroke-width="3"
       stroke-linecap="round"
       id="line66" />
    <line
       x1="1.5"
       y1="-1.5"
       x2="49.0587"
       y2="-1.5"
       transform="matrix(0.641913 0.766777 -0.742102 0.670287 182.16 169)"
       stroke="currentColor"
       stroke-width="3"
       stroke-linecap="round"
       id="line67" />
    <line
       x1="1.5"
       y1="-1.5"
       x2="49.0587"
       y2="-1.5"
       transform="matrix(0.641913 0.766777 -0.742102 0.670287 239.545 169)"
       stroke="currentColor"
       stroke-width="3"
       stroke-linecap="round"
       id="line68" />
    <line
       x1="1.5"
       y1="-1.5"
       x2="49.0587"
       y2="-1.5"
       transform="matrix(0.641913 0.766778 -0.742101 0.670288 10 226.309)"
       stroke="currentColor"
       stroke-width="3"
       stroke-linecap="round"
       id="line69" />
    <line
       x1="1.5"
       y1="-1.5"
       x2="49.0587"
       y2="-1.5"
       transform="matrix(0.641913 0.766778 -0.742101 0.670288 67.3867 226.309)"
       stroke="currentColor"
       stroke-width="3"
       stroke-linecap="round"
       id="line70" />
    <line
       x1="1.5"
       y1="-1.5"
       x2="49.0587"
       y2="-1.5"
       transform="matrix(0.641913 0.766777 -0.742102 0.670287 124.773 226.309)"
       stroke="currentColor"
       stroke-width="3"
       stroke-linecap="round"
       id="line71" />
    <line
       x1="1.5"
       y1="-1.5"
       x2="49.0587"
       y2="-1.5"
       transform="matrix(0.641913 0.766777 -0.742102 0.670287 182.16 226.309)"
       stroke="currentColor"
       stroke-width="3"
       stroke-linecap="round"
       id="line72" />
    <line
       x1="1.5"
       y1="-1.5"
       x2="49.0587"
       y2="-1.5"
       transform="matrix(0.641913 0.766777 -0.742102 0.670287 239.545 226.309)"
       stroke="currentColor"
       stroke-width="3"
       stroke-linecap="round"
       id="line73" />
    <line
       x1="1.5"
       y1="-1.5"
       x2="49.0587"
       y2="-1.5"
       transform="matrix(0.641913 0.766778 -0.742101 0.670288 10 283.617)"
       stroke="currentColor"
       stroke-width="3"
       stroke-linecap="round"
       id="line74" />
    <line
       x1="1.5"
       y1="-1.5"
       x2="49.0587"
       y2="-1.5"
       transform="matrix(0.641913 0.766778 -0.742101 0.670288 67.3867 283.615)"
       stroke="currentColor"
       stroke-width="3"
       stroke-linecap="round"
       id="line75" />
    <line
       x1="1.5"
       y1="-1.5"
       x2="49.0587"
       y2="-1.5"
       transform="matrix(0.641913 0.766777 -0.742102 0.670287 124.773 283.615)"
       stroke="currentColor"
       stroke-width="3"
       stroke-linecap="round"
       id="line76" />
    <line
       x1="1.5"
       y1="-1.5"
       x2="49.0587"
       y2="-1.5"
       transform="matrix(0.641913 0.766777 -0.742102 0.670287 182.16 283.615)"
       stroke="currentColor"
       stroke-width="3"
       stroke-linecap="round"
       id="line77" />
    <line
       x1="1.5"
       y1="-1.5"
       x2="49.0587"
       y2="-1.5"
       transform="matrix(0.641913 0.766777 -0.742102 0.670287 239.545 283.615)"
       stroke="currentColor"
       stroke-width="3"
       stroke-linecap="round"
       id="line78" />
  </g>
  <path
     opacity="0.15"
     d="M1248.42 313.988C1240.03 313.988 1233.16 320.673 1233.16 328.844C1233.16 337.015 1240.03 343.7 1248.42 343.7C1256.82 343.7 1263.68 337.015 1263.68 328.844C1263.68 320.673 1256.82 313.988 1248.42 313.988ZM1248.42 373.412C1240.03 373.412 1233.16 380.097 1233.16 388.268C1233.16 396.439 1240.03 403.124 1248.42 403.124C1256.82 403.124 1263.68 396.439 1263.68 388.268C1263.68 380.097 1256.82 373.412 1248.42 373.412ZM1248.42 254.564C1240.03 254.564 1233.16 261.249 1233.16 269.42C1233.16 277.591 1240.03 284.276 1248.42 284.276C1256.82 284.276 1263.68 277.591 1263.68 269.42C1263.68 261.249 1256.82 254.564 1248.42 254.564ZM1202.63 261.992C1198.36 261.992 1195 265.26 1195 269.42C1195 273.58 1198.36 276.848 1202.63 276.848C1206.91 276.848 1210.26 273.58 1210.26 269.42C1210.26 265.26 1206.91 261.992 1202.63 261.992ZM1248.42 195.14C1240.03 195.14 1233.16 201.825 1233.16 209.996C1233.16 218.167 1240.03 224.852 1248.42 224.852C1256.82 224.852 1263.68 218.167 1263.68 209.996C1263.68 201.825 1256.82 195.14 1248.42 195.14ZM1477.37 276.848C1481.64 276.848 1485 273.58 1485 269.42C1485 265.26 1481.64 261.992 1477.37 261.992C1473.09 261.992 1469.74 265.26 1469.74 269.42C1469.74 273.58 1473.09 276.848 1477.37 276.848ZM1370.53 224.852C1378.92 224.852 1385.79 218.167 1385.79 209.996C1385.79 201.825 1378.92 195.14 1370.53 195.14C1362.13 195.14 1355.26 201.825 1355.26 209.996C1355.26 218.167 1362.13 224.852 1370.53 224.852ZM1370.53 172.856C1374.8 172.856 1378.16 169.588 1378.16 165.428C1378.16 161.268 1374.8 158 1370.53 158C1366.25 158 1362.89 161.268 1362.89 165.428C1362.89 169.588 1366.25 172.856 1370.53 172.856ZM1202.63 321.416C1198.36 321.416 1195 324.685 1195 328.844C1195 333.004 1198.36 336.272 1202.63 336.272C1206.91 336.272 1210.26 333.004 1210.26 328.844C1210.26 324.685 1206.91 321.416 1202.63 321.416ZM1309.47 425.408C1305.2 425.408 1301.84 428.677 1301.84 432.836C1301.84 436.996 1305.2 440.264 1309.47 440.264C1313.75 440.264 1317.11 436.996 1317.11 432.836C1317.11 428.677 1313.75 425.408 1309.47 425.408ZM1309.47 172.856C1313.75 172.856 1317.11 169.588 1317.11 165.428C1317.11 161.268 1313.75 158 1309.47 158C1305.2 158 1301.84 161.268 1301.84 165.428C1301.84 169.588 1305.2 172.856 1309.47 172.856ZM1309.47 224.852C1317.87 224.852 1324.74 218.167 1324.74 209.996C1324.74 201.825 1317.87 195.14 1309.47 195.14C1301.08 195.14 1294.21 201.825 1294.21 209.996C1294.21 218.167 1301.08 224.852 1309.47 224.852ZM1309.47 306.56C1296.81 306.56 1286.58 316.514 1286.58 328.844C1286.58 341.175 1296.81 351.128 1309.47 351.128C1322.14 351.128 1332.37 341.175 1332.37 328.844C1332.37 316.514 1322.14 306.56 1309.47 306.56ZM1431.58 313.988C1423.18 313.988 1416.32 320.673 1416.32 328.844C1416.32 337.015 1423.18 343.7 1431.58 343.7C1439.97 343.7 1446.84 337.015 1446.84 328.844C1446.84 320.673 1439.97 313.988 1431.58 313.988ZM1431.58 373.412C1423.18 373.412 1416.32 380.097 1416.32 388.268C1416.32 396.439 1423.18 403.124 1431.58 403.124C1439.97 403.124 1446.84 396.439 1446.84 388.268C1446.84 380.097 1439.97 373.412 1431.58 373.412ZM1431.58 254.564C1423.18 254.564 1416.32 261.249 1416.32 269.42C1416.32 277.591 1423.18 284.276 1431.58 284.276C1439.97 284.276 1446.84 277.591 1446.84 269.42C1446.84 261.249 1439.97 254.564 1431.58 254.564ZM1431.58 195.14C1423.18 195.14 1416.32 201.825 1416.32 209.996C1416.32 218.167 1423.18 224.852 1431.58 224.852C1439.97 224.852 1446.84 218.167 1446.84 209.996C1446.84 201.825 1439.97 195.14 1431.58 195.14ZM1477.37 321.416C1473.09 321.416 1469.74 324.685 1469.74 328.844C1469.74 333.004 1473.09 336.272 1477.37 336.272C1481.64 336.272 1485 333.004 1485 328.844C1485 324.685 1481.64 321.416 1477.37 321.416ZM1370.53 373.412C1362.13 373.412 1355.26 380.097 1355.26 388.268C1355.26 396.439 1362.13 403.124 1370.53 403.124C1378.92 403.124 1385.79 396.439 1385.79 388.268C1385.79 380.097 1378.92 373.412 1370.53 373.412ZM1370.53 425.408C1366.25 425.408 1362.89 428.677 1362.89 432.836C1362.89 436.996 1366.25 440.264 1370.53 440.264C1374.8 440.264 1378.16 436.996 1378.16 432.836C1378.16 428.677 1374.8 425.408 1370.53 425.408ZM1309.47 247.136C1296.81 247.136 1286.58 257.09 1286.58 269.42C1286.58 281.751 1296.81 291.704 1309.47 291.704C1322.14 291.704 1332.37 281.751 1332.37 269.42C1332.37 257.09 1322.14 247.136 1309.47 247.136ZM1309.47 373.412C1301.08 373.412 1294.21 380.097 1294.21 388.268C1294.21 396.439 1301.08 403.124 1309.47 403.124C1317.87 403.124 1324.74 396.439 1324.74 388.268C1324.74 380.097 1317.87 373.412 1309.47 373.412ZM1370.53 306.56C1357.86 306.56 1347.63 316.514 1347.63 328.844C1347.63 341.175 1357.86 351.128 1370.53 351.128C1383.19 351.128 1393.42 341.175 1393.42 328.844C1393.42 316.514 1383.19 306.56 1370.53 306.56ZM1370.53 247.136C1357.86 247.136 1347.63 257.09 1347.63 269.42C1347.63 281.751 1357.86 291.704 1370.53 291.704C1383.19 291.704 1393.42 281.751 1393.42 269.42C1393.42 257.09 1383.19 247.136 1370.53 247.136Z"
     fill="currentColor"
     id="path78" />
</svg>
