<?xml version="1.0" encoding="UTF-8" standalone="no"?>
<svg
   width="1448"
   height="300"
   viewBox="0 0 1448 300"
   fill="none"
   version="1.1"
   id="svg15"
   xmlns="http://www.w3.org/2000/svg"
   xmlns:svg="http://www.w3.org/2000/svg">
  <g id="g13">
    <g
       opacity="0.4"
       id="g2">
      <mask
         id="path-1-inside-1_692_37697"
         fill="currentColor">
        <path
           fill-rule="evenodd"
           clip-rule="evenodd"
           d="M139.29 -14.8495H90.0904V15.5933L59.6475 15.5933L59.6475 64.7933H90.0904V95.8505H139.29V64.7933H170.347V15.5933L139.29 15.5933V-14.8495Z"
           id="path1" />
      </mask>
      <path
         d="M90.0904 -14.8495V-18.8495H86.0904V-14.8495H90.0904ZM139.29 -14.8495H143.29V-18.8495H139.29V-14.8495ZM90.0904 15.5933V19.5933H94.0904V15.5933H90.0904ZM59.6475 15.5933L59.6475 11.5933H55.6475L55.6475 15.5933H59.6475ZM59.6475 64.7933H55.6475V68.7933H59.6475V64.7933ZM90.0904 64.7933H94.0904V60.7933H90.0904V64.7933ZM90.0904 95.8505H86.0904V99.8505H90.0904V95.8505ZM139.29 95.8505V99.8505H143.29V95.8505H139.29ZM139.29 64.7933V60.7933H135.29V64.7933H139.29ZM170.347 64.7933V68.7933H174.347V64.7933H170.347ZM170.347 15.5933H174.347V11.5933H170.347V15.5933ZM139.29 15.5933H135.29V19.5933H139.29V15.5933ZM90.0904 -10.8495H139.29V-18.8495H90.0904V-10.8495ZM94.0904 15.5933V-14.8495H86.0904V15.5933H94.0904ZM59.6475 19.5933L90.0904 19.5933V11.5933L59.6475 11.5933L59.6475 19.5933ZM63.6475 64.7933L63.6475 15.5933H55.6475L55.6475 64.7933H63.6475ZM90.0904 60.7933H59.6475V68.7933H90.0904V60.7933ZM94.0904 95.8505V64.7933H86.0904V95.8505H94.0904ZM139.29 91.8505H90.0904V99.8505H139.29V91.8505ZM135.29 64.7933V95.8505H143.29V64.7933H135.29ZM170.347 60.7933H139.29V68.7933H170.347V60.7933ZM166.347 15.5933V64.7933H174.347V15.5933H166.347ZM139.29 19.5933L170.347 19.5933V11.5933L139.29 11.5933V19.5933ZM135.29 -14.8495V15.5933H143.29V-14.8495H135.29Z"
         fill="currentColor"
         mask="url(#path-1-inside-1_692_37697)"
         id="path2" />
    </g>
    <g
       opacity="0.4"
       id="g7">
      <mask
         id="path-8-inside-2_692_37697"
         fill="currentColor">
        <path
           fill-rule="evenodd"
           clip-rule="evenodd"
           d="M1188.79 192.151H1139.59V222.593L1109.15 222.593L1109.15 271.793H1139.59V302.851H1188.79V271.793H1219.85V222.593L1188.79 222.593V192.151Z"
           id="path6" />
      </mask>
      <path
         d="M1139.59 192.151V188.151H1135.59V192.151H1139.59ZM1188.79 192.151H1192.79V188.151H1188.79V192.151ZM1139.59 222.593V226.593H1143.59V222.593H1139.59ZM1109.15 222.593L1109.15 218.593H1105.15L1105.15 222.593H1109.15ZM1109.15 271.793H1105.15V275.793H1109.15V271.793ZM1139.59 271.793H1143.59V267.793H1139.59V271.793ZM1139.59 302.851H1135.59V306.851H1139.59V302.851ZM1188.79 302.851V306.851H1192.79V302.851H1188.79ZM1188.79 271.793V267.793H1184.79V271.793H1188.79ZM1219.85 271.793V275.793H1223.85V271.793H1219.85ZM1219.85 222.593H1223.85V218.593H1219.85V222.593ZM1188.79 222.593H1184.79V226.593H1188.79V222.593ZM1139.59 196.151H1188.79V188.151H1139.59V196.151ZM1143.59 222.593V192.151H1135.59V222.593H1143.59ZM1109.15 226.593L1139.59 226.593V218.593L1109.15 218.593L1109.15 226.593ZM1113.15 271.793L1113.15 222.593H1105.15L1105.15 271.793H1113.15ZM1139.59 267.793H1109.15V275.793H1139.59V267.793ZM1143.59 302.851V271.793H1135.59V302.851H1143.59ZM1188.79 298.851H1139.59V306.851H1188.79V298.851ZM1184.79 271.793V302.851H1192.79V271.793H1184.79ZM1219.85 267.793H1188.79V275.793H1219.85V267.793ZM1215.85 222.593V271.793H1223.85V222.593H1215.85ZM1188.79 226.593L1219.85 226.593V218.593L1188.79 218.593V226.593ZM1184.79 192.151V222.593H1192.79V192.151H1184.79Z"
         fill="currentColor"
         mask="url(#path-8-inside-2_692_37697)"
         id="path7" />
    </g>
    <g
       opacity="0.4"
       id="g9">
      <mask
         id="path-10-inside-3_692_37697"
         fill="currentColor">
        <path
           fill-rule="evenodd"
           clip-rule="evenodd"
           d="M1410.02 10.7997H1379.62V29.6103L1360.8 29.6103V60.0103H1379.62V79.1997H1410.02V60.0103H1429.2V29.6103L1410.02 29.6103V10.7997Z"
           id="path8" />
      </mask>
      <path
         d="M1379.62 10.7997V6.79968H1375.62V10.7997H1379.62ZM1410.02 10.7997H1414.02V6.79968H1410.02V10.7997ZM1379.62 29.6103V33.6103H1383.62V29.6103H1379.62ZM1360.8 29.6103L1360.8 25.6103H1356.8V29.6103H1360.8ZM1360.8 60.0103H1356.8V64.0103H1360.8V60.0103ZM1379.62 60.0103H1383.62V56.0103H1379.62V60.0103ZM1379.62 79.1997H1375.62V83.1997H1379.62V79.1997ZM1410.02 79.1997V83.1997H1414.02V79.1997H1410.02ZM1410.02 60.0103V56.0103H1406.02V60.0103H1410.02ZM1429.2 60.0103V64.0103H1433.2V60.0103H1429.2ZM1429.2 29.6103H1433.2V25.6103H1429.2V29.6103ZM1410.02 29.6103H1406.02V33.6103H1410.02V29.6103ZM1379.62 14.7997H1410.02V6.79968H1379.62V14.7997ZM1383.62 29.6103V10.7997H1375.62V29.6103H1383.62ZM1360.8 33.6103L1379.62 33.6103V25.6103L1360.8 25.6103L1360.8 33.6103ZM1364.8 60.0103V29.6103H1356.8V60.0103H1364.8ZM1379.62 56.0103H1360.8V64.0103H1379.62V56.0103ZM1383.62 79.1997V60.0103H1375.62V79.1997H1383.62ZM1410.02 75.1997H1379.62V83.1997H1410.02V75.1997ZM1406.02 60.0103V79.1997H1414.02V60.0103H1406.02ZM1429.2 56.0103H1410.02V64.0103H1429.2V56.0103ZM1425.2 29.6103V60.0103H1433.2V29.6103H1425.2ZM1410.02 33.6103L1429.2 33.6103V25.6103L1410.02 25.6103V33.6103ZM1406.02 10.7997V29.6103H1414.02V10.7997H1406.02Z"
         fill="currentColor"
         mask="url(#path-10-inside-3_692_37697)"
         id="path9" />
    </g>
    <mask
       id="path-12-inside-4_692_37697"
       fill="currentColor">
      <path
         fill-rule="evenodd"
         clip-rule="evenodd"
         d="M1398.44 -33.7007H1276.04V42.035L1200.3 42.0349L1200.3 164.435H1276.04V241.699H1398.44V164.435H1475.7V42.035L1398.44 42.035V-33.7007Z"
         id="path10" />
    </mask>
    <path
       d="M1276.04 -33.7007V-37.7007H1272.04V-33.7007H1276.04ZM1398.44 -33.7007H1402.44V-37.7007H1398.44V-33.7007ZM1276.04 42.035V46.035H1280.04V42.035H1276.04ZM1200.3 42.0349L1200.3 38.0349H1196.3L1196.3 42.0349H1200.3ZM1200.3 164.435H1196.3V168.435H1200.3V164.435ZM1276.04 164.435H1280.04V160.435H1276.04V164.435ZM1276.04 241.699H1272.04V245.699H1276.04V241.699ZM1398.44 241.699V245.699H1402.44V241.699H1398.44ZM1398.44 164.435V160.435H1394.44V164.435H1398.44ZM1475.7 164.435V168.435H1479.7V164.435H1475.7ZM1475.7 42.035H1479.7V38.035H1475.7V42.035ZM1398.44 42.035H1394.44V46.035H1398.44V42.035ZM1276.04 -29.7007H1398.44V-37.7007H1276.04V-29.7007ZM1280.04 42.035V-33.7007H1272.04V42.035H1280.04ZM1200.3 46.0349L1276.04 46.035V38.035L1200.3 38.0349L1200.3 46.0349ZM1204.3 164.435L1204.3 42.0349H1196.3L1196.3 164.435H1204.3ZM1276.04 160.435H1200.3V168.435H1276.04V160.435ZM1280.04 241.699V164.435H1272.04V241.699H1280.04ZM1398.44 237.699H1276.04V245.699H1398.44V237.699ZM1394.44 164.435V241.699H1402.44V164.435H1394.44ZM1475.7 160.435H1398.44V168.435H1475.7V160.435ZM1471.7 42.035V164.435H1479.7V42.035H1471.7ZM1398.44 46.035L1475.7 46.035V38.035L1398.44 38.035V46.035ZM1394.44 -33.7007V42.035H1402.44V-33.7007H1394.44Z"
       fill="currentColor"
       mask="url(#path-12-inside-4_692_37697)"
       id="path11" />
    <mask
       id="path-14-inside-5_692_37697"
       fill="currentColor">
      <path
         fill-rule="evenodd"
         clip-rule="evenodd"
         d="M124.356 112.851H37.5561V166.558L-16.1533 166.558L-16.1533 253.358H37.5561V308.151H124.356V253.358H179.147V166.558L124.356 166.558V112.851Z"
         id="path12" />
    </mask>
    <path
       d="M37.5561 112.851V108.851H33.5561V112.851H37.5561ZM124.356 112.851H128.356V108.851H124.356V112.851ZM37.5561 166.558V170.558H41.5561V166.558H37.5561ZM-16.1533 166.558L-16.1533 162.558H-20.1533L-20.1533 166.558H-16.1533ZM-16.1533 253.358H-20.1533V257.358H-16.1533V253.358ZM37.5561 253.358H41.5561V249.358H37.5561V253.358ZM37.5561 308.151H33.5561V312.151H37.5561V308.151ZM124.356 308.151V312.151H128.356V308.151H124.356ZM124.356 253.358V249.358H120.356V253.358H124.356ZM179.147 253.358V257.358H183.147V253.358H179.147ZM179.147 166.558H183.147V162.558H179.147V166.558ZM124.356 166.558H120.356V170.558H124.356V166.558ZM37.5561 116.851H124.356V108.851H37.5561V116.851ZM41.5561 166.558V112.851H33.5561V166.558H41.5561ZM-16.1533 170.558L37.5561 170.558V162.558L-16.1533 162.558L-16.1533 170.558ZM-12.1533 253.358L-12.1533 166.558H-20.1533L-20.1533 253.358H-12.1533ZM37.5561 249.358H-16.1533V257.358H37.5561V249.358ZM41.5561 308.151V253.358H33.5561V308.151H41.5561ZM124.356 304.151H37.5561V312.151H124.356V304.151ZM120.356 253.358V308.151H128.356V253.358H120.356ZM179.147 249.358H124.356V257.358H179.147V249.358ZM175.147 166.558V253.358H183.147V166.558H175.147ZM124.356 170.558L179.147 170.558V162.558L124.356 162.558V170.558ZM120.356 112.851V166.558H128.356V112.851H120.356Z"
       fill="currentColor"
       mask="url(#path-14-inside-5_692_37697)"
       id="path13" />
  </g>
</svg>
