<svg xmlns="http://www.w3.org/2000/svg" width="40" height="65" fill="none" xmlns:v="https://vecta.io/nano"><g filter="url(#B)"><ellipse cx="19.692" cy="58.573" rx="6.729" ry="3.739" fill="#000" fill-opacity=".12"/></g><mask id="A" maskUnits="userSpaceOnUse" x="0" y="0" width="40" height="59" fill="#000"><path fill="#fff" d="M0 0h40v59H0z"/><path fill-rule="evenodd" d="M19.694 38.386h-.002v19.441c-.826 0-1.495-.669-1.495-1.495 0-10.425-5.832-16.813-10.199-21.595h0c-1.262-1.383-2.402-2.631-3.243-3.804A18.61 18.61 0 0 1 1 19.693C1 9.369 9.369 1 19.693 1s18.693 8.369 18.693 18.693a18.61 18.61 0 0 1-3.737 11.216h0c-.843 1.18-1.989 2.435-3.26 3.827-4.367 4.782-10.199 11.17-10.199 21.595 0 .826-.669 1.495-1.495 1.495V38.386z"/></mask><path fill-rule="evenodd" d="M19.694 38.386h-.002v19.441c-.826 0-1.495-.669-1.495-1.495 0-10.425-5.832-16.813-10.199-21.595h0c-1.262-1.383-2.402-2.631-3.243-3.804A18.61 18.61 0 0 1 1 19.693C1 9.369 9.369 1 19.693 1s18.693 8.369 18.693 18.693a18.61 18.61 0 0 1-3.737 11.216h0c-.843 1.18-1.989 2.435-3.26 3.827-4.367 4.782-10.199 11.17-10.199 21.595 0 .826-.669 1.495-1.495 1.495V38.386z" fill="currentColor"/><path d="M19.694 38.386h1v-1h-1v1zm-.002 0v-1h-1v1h1zm0 19.441v1h1v-1h-1zM7.998 34.736l.738-.674-.015-.017-.016-.016-.707.707zm0 0l-.738.674.015.017.016.016.707-.707zm-3.243-3.804l.813-.583-.007-.01-.007-.01-.799.602zm29.894-.023l-.8-.601-1.202 1.601h2.002v-1zm0 0l.814.581 1.129-1.581h-1.943v1zm-3.26 3.827l.738.674-.738-.674zM19.694 57.826h-1v1h1v-1zm-.001-18.441h0 0 0 0 0 0 0 0 0 0 0 0 0 0 0 0 0 0 0 0 0 0 0 0 0 0 0 0 0 0 0 0 0 0 0 0 0 0 0 0 0 0 0 0 0 0 0 0 0 0 0 0 0 0 0 0 0 0 0 0 0 0 0 0 0 0 0 0 0 0 0 0 0 0 0 0 0 0 0 0 0 0 0 0 0 0 0 0 0 0 0 0 0 0 0 0 0 0 0 0 0 0 0 0 0 0 0 0 0 0 0 0 0 0 0 0 0 0 0 0 0 0 0 0 0 0 0 0 0 0 0 0 0 0 0 0 0 0 0 0 0 0 0 0 0 0 0 0 0 0 0 0 0 0 0 0 0 0 0 0 0 0 0 0 0 0 0 0 0 0 0 0 0 0 0 0 0 0 0 0 0 0 0 0 0 0 0 0 0 0 0 0 0 0 0 0 0 0 0 0 0 0 0 0 0 0 0 0 0 0 0 0 0 0 0 0 0 0 0 0 0 0 0 0 0 0 0 0 0 0 0 0 0 0 0 0 0 0 0 0 0 0 0 0 0 0 0 0 0 0 0 0 0 0 0 0v-2h0 0 0 0 0 0 0 0 0 0 0 0 0 0 0 0 0 0 0 0 0 0 0 0 0 0 0 0 0 0 0 0 0 0 0 0 0 0 0 0 0 0 0 0 0 0 0 0 0 0 0 0 0 0 0 0 0 0 0 0 0 0 0 0 0 0 0 0 0 0 0 0 0 0 0 0 0 0 0 0 0 0 0 0 0 0 0 0 0 0 0 0 0 0 0 0 0 0 0 0 0 0 0 0 0 0 0 0 0 0 0 0 0 0 0 0 0 0 0 0 0 0 0 0 0 0 0 0 0 0 0 0 0 0 0 0 0 0 0 0 0 0 0 0 0 0 0 0 0 0 0 0 0 0 0 0 0 0 0 0 0 0 0 0 0 0 0 0 0 0 0 0 0 0 0 0 0 0 0 0 0 0 0 0 0 0 0 0 0 0 0 0 0 0 0 0 0 0 0 0 0 0 0 0 0 0 0 0 0 0 0 0 0 0 0 0 0 0 0 0 0 0 0 0 0 0 0 0 0 0 0 0 0 0 0 0 0 0 0 0 0 0 0 0 0 0 0 0 0 0 0 0 0 0 0 0v2zm0 0h0v-2h0v2zm1 18.441V38.386h-2v19.441h2zm-3.495-1.495c0 1.378 1.117 2.495 2.495 2.495v-2c-.274 0-.495-.222-.495-.495h-2zM7.26 35.41c4.371 4.787 9.938 10.918 9.938 20.921h2c0-10.847-6.098-17.492-10.461-22.27L7.26 35.41zm.031.033h0l1.414-1.414h0l-1.414 1.414zm-3.349-3.929c.883 1.231 2.068 2.527 3.318 3.896l1.477-1.349c-1.275-1.396-2.37-2.597-3.169-3.713l-1.625 1.165zM0 19.693a19.61 19.61 0 0 0 3.956 11.841l1.597-1.204A17.61 17.61 0 0 1 2 19.693H0zM19.693 0C8.817 0 0 8.817 0 19.693h2C2 9.921 9.921 2 19.693 2V0zm19.693 19.693C39.386 8.817 30.569 0 19.693 0v2c9.771 0 17.693 7.921 17.693 17.693h2zm-3.938 11.817a19.61 19.61 0 0 0 3.938-11.817h-2a17.61 17.61 0 0 1-3.537 10.615l1.599 1.201zm-.799-1.601h0v2h0v-2zm-2.521 5.501c1.258-1.378 2.45-2.681 3.335-3.92l-1.628-1.162c-.8 1.121-1.901 2.329-3.184 3.734l1.477 1.349zM22.19 56.331c0-10.003 5.567-16.134 9.938-20.921l-1.477-1.349c-4.363 4.778-10.461 11.422-10.461 22.27h2zm-2.495 2.495c1.378 0 2.495-1.117 2.495-2.495h-2c0 .274-.222.495-.495.495v2zm-1-20.441v19.441h2V38.386h-2z" fill="url(#C)" mask="url(#A)"/><circle cx="19.692" cy="19.693" r="6.729" fill="#000" fill-opacity=".4"/><defs><filter id="B" x="10.963" y="52.835" width="17.459" height="11.477" filterUnits="userSpaceOnUse" color-interpolation-filters="sRGB"><feFlood flood-opacity="0"/><feBlend in="SourceGraphic"/><feGaussianBlur stdDeviation="1"/></filter><linearGradient id="C" x1="19.693" y1="1" x2="19.693" y2="57.826" gradientUnits="userSpaceOnUse"><stop stop-color="#fff"/><stop offset="1" stop-color="#fff" stop-opacity=".5"/></linearGradient></defs></svg>
