<svg width="20" height="20" viewBox="0 0 20 20" xmlns="http://www.w3.org/2000/svg">
    <path d="M16.9935 18.4631L18.6552 16.7967C19.1144 16.337 19.1144 15.5906 18.6552 15.1303L15.3317 12.6308C14.7695 12.2492 14.1291 12.171 13.67 12.6308L12.6527 13.651C11.6394 12.8948 10.5347 11.9869 9.51564 10.965C8.36342 9.80928 7.316 8.52389 6.4556 7.3682L7.43817 6.38215C7.89732 5.92242 7.81974 5.28031 7.43817 4.71578L4.94556 1.38303C4.56052 0.824291 3.74297 0.922722 3.28382 1.38303L1.62265 3.0494C0.704353 3.97002 0.998488 5.16682 1.62265 6.38215C1.62265 6.38215 3.68159 10.0606 6.82211 13.2098C9.77619 16.172 13.67 18.4631 13.67 18.4631C14.9803 18.9408 16.0758 19.3837 16.9935 18.4631Z" stroke="currentColor" stroke-linejoin="round"/>
</svg>
